<?xml version="1.0" encoding="UTF-8"?>
<svg id="Layer_2" xmlns="http://www.w3.org/2000/svg" version="1.1" viewBox="0 0 6136.92 1248.24">
  <!-- Generator: Adobe Illustrator 29.0.1, SVG Export Plug-In . SVG Version: 2.1.0 Build 192)  -->
  <path d="M3106.79,228.28c40.57,0,72.29,15.57,95.19,46.71,22.87,31.14,34.33,72.92,34.33,125.31v140.43c0,1.3.5,2.55,1.39,3.5l42.09,44.61c.64.67,1.77.22,1.77-.7v-187.83c0-52.39,11.95-94.17,35.89-125.31,23.92-31.14,56.69-46.71,98.31-46.71,2.07,0,3.12-2.97,3.12-8.9s-1.05-8.9-3.12-8.9c-22.89,0-47.86.74-74.9,2.22-27.06,1.48-54.61,2.22-82.7,2.22s-55.93-.74-80.36-2.22c-24.45-1.48-48.13-2.22-71-2.22-2.1,0-3.12,2.97-3.12,8.9s1.02,8.9,3.12,8.9Z"/>
  <path d="M3025.02,1118.37c-40.83,0-72.76-15.55-95.8-46.64-23.02-31.09-34.55-72.8-34.55-125.1v-142.24c0-1.22-.46-2.4-1.29-3.3l-42.41-46.23c-.65-.71-1.85-.25-1.85.72v191.06c0,52.3-12.02,94.01-36.12,125.1-24.07,31.09-57.05,46.64-98.94,46.64-2.09,0-3.14,2.96-3.14,8.88s1.06,8.88,3.14,8.88c23.04,0,48.17-.74,75.39-2.22,27.24-1.48,54.97-2.22,83.24-2.22s56.29.74,80.88,2.22c24.61,1.48,48.44,2.22,71.46,2.22,2.11,0,3.14-2.96,3.14-8.88s-1.03-8.88-3.14-8.88Z"/>
  <path d="M3815,1118.37c-26.16,0-52.34-7.17-78.53-21.47-23.95-13.11-52.76-37.18-86.38-72.2V398.86c0-52.33,13.35-93.78,40.05-124.36,26.7-30.6,63.09-45.89,109.15-45.89,3.14,0,4.71-2.96,4.71-8.88s-1.57-8.88-4.71-8.88c-25.13,0-52.61.49-82.45,1.48-29.84.97-60.47,1.48-91.88,1.48-29.3,0-56.27-.51-80.88-1.48-24.59-.99-48.42-1.48-71.46-1.48-2.09,0-3.14,2.96-3.14,8.88s1.06,8.88,3.14,8.88c40.83,0,72.78,15.29,95.8,45.89,23.04,30.58,34.55,72.03,34.55,124.36v575.45l-736.58-790.12c-2.09-.97-5.5-1.23-10.21-.74-4.71.51-7.07,2.22-7.07,5.18v229.89c0,1.25.47,2.46,1.32,3.37l587.63,637.26c25.13,28.61,41.1,48.6,47.9,59.96,6.82,11.33,17.03,17.03,30.63,17.03,16.76,0,40.32-.51,70.67-1.48,30.38-.99,64.39-1.48,102.08-1.48,18.85,0,39.26.49,61.25,1.48,21.99.97,43.46,1.48,64.39,1.48,2.11,0,3.14-2.96,3.14-8.88s-1.03-8.88-3.14-8.88Z"/>
  <path d="M2696.4,287.6c-24.97-28.66-40.84-48.68-47.59-60.06-6.78-11.35-16.92-17.05-30.43-17.05-16.65,0-40.06.51-70.22,1.48-30.18,1-63.98,1.48-101.43,1.48-18.72,0-39.01-.49-60.86-1.48-21.85-.97-43.18-1.48-63.98-1.48-2.1,0-3.12,2.97-3.12,8.9s1.02,8.9,3.12,8.9c25.99,0,52.01,7.18,78.02,21.5,23.8,13.13,52.42,37.25,85.82,72.33v626.9c0,52.41-13.26,93.94-39.79,124.57-26.53,30.66-62.68,45.97-108.45,45.97-3.12,0-4.68,2.97-4.68,8.9s1.56,8.9,4.68,8.9c24.97,0,52.27-.49,81.92-1.48,29.65-.97,60.08-1.48,91.28-1.48,29.11,0,55.91.51,80.36,1.48,24.43,1,48.1,1.48,71,1.48,2.07,0,3.12-2.97,3.12-8.9s-1.05-8.9-3.12-8.9c-40.57,0-72.32-15.32-95.19-45.97-22.89-30.63-34.33-72.16-34.33-124.57V372.59l731.83,791.45c2.07.97,5.46,1.23,10.14.74,4.68-.51,7.02-2.22,7.02-5.19v-229.11c0-1.23-.46-2.41-1.28-3.31l-583.87-639.57Z"/>
</svg>