<svg xmlns="http://www.w3.org/2000/svg" viewBox="0 0 6136.92 1248.24">
  <path d="M3106.8 228.3c40.6 0 72.3 15.6 95.2 46.7 22.9 31.1 34.3 72.9 34.3 125.3v140.4c0 1.3.5 2.6 1.4 3.5l42.1 44.6c.6.7 1.8.2 1.8-.7v-187.8c0-52.4 12-94.2 35.9-125.3 23.9-31.2 56.7-46.7 98.3-46.7 2.1 0 3.1-3 3.1-8.9s-1-8.9-3.1-8.9c-22.9 0-47.9.7-74.9 2.2-27.1 1.5-54.6 2.2-82.7 2.2s-55.9-.7-80.4-2.2c-24.4-1.5-48.1-2.2-71-2.2-2.1 0-3.1 3-3.1 8.9s1 8.9 3.1 8.9z"/>
  <path d="M2696.4 287.6c-25-28.7-40.8-48.7-47.6-60-6.8-11.4-16.9-17.1-30.4-17.1-16.7 0-40.1.5-70.2 1.5-30.2 1-64 1.5-101.4 1.5-18.7 0-39-.5-60.9-1.5-21.8-1-43.2-1.5-64-1.5-2 0-3.1 3-3.1 8.9s1 8.9 3.1 8.9c26 0 52 7.2 78 21.5 23.8 13.1 52.4 37.2 85.8 72.3v626.9c0 52.4-13.3 93.9-39.8 124.6-26.5 30.6-62.7 46-108.4 46-3.1 0-4.7 3-4.7 8.9s1.6 8.9 4.7 8.9c25 0 52.3-.5 81.9-1.5 29.7-1 60.1-1.5 91.3-1.5 29.1 0 55.9.5 80.4 1.5 24.4 1 48.1 1.5 71 1.5 2.1 0 3.1-3 3.1-8.9s-1-8.9-3.1-8.9c-40.6 0-72.3-15.3-95.2-46-22.9-30.6-34.3-72.1-34.3-124.5V372.6l731.8 791.4c2.1 1 5.5 1.2 10.2.7 4.6-.5 7-2.2 7-5.2v-229.1c0-1.2-.5-2.4-1.3-3.3l-583.9-639.6z"/>
  <path d="M3025 1118.4c-40.8 0-72.8-15.5-95.8-46.6-23-31.1-34.5-72.8-34.5-125.1v-142.2c0-1.2-.5-2.4-1.3-3.3l-42.4-46.3c-.7-.7-1.9-.2-1.9.7v191.1c0 52.3-12 94-36.1 125.1-24.1 31.1-57 46.6-98.9 46.6-2.1 0-3.1 3-3.1 8.9s1 8.9 3.1 8.9c23 0 48.2-.7 75.4-2.2 27.2-1.5 55-2.2 83.2-2.2s56.3.7 80.9 2.2c24.6 1.5 48.4 2.2 71.5 2.2 2.1 0 3.1-3 3.1-8.9s-1-8.9-3.1-8.9z"/>
  <path d="M3815 1118.4c-26.2 0-52.3-7.2-78.5-21.5-24-13.1-52.8-37.2-86.4-72.2V398.9c0-52.3 13.3-93.8 40-124.4 26.7-30.6 63.1-45.9 109.2-45.9 3.1 0 4.7-3 4.7-8.9s-1.6-8.9-4.7-8.9c-25.1 0-52.6.5-82.4 1.5-29.9 1-60.5 1.5-91.9 1.5-29.3 0-56.3-.5-80.9-1.5-24.6-1-48.4-1.5-71.5-1.5-2.1 0-3.1 3-3.1 8.9s1 8.9 3.1 8.9c40.8 0 72.8 15.3 95.8 45.9 23 30.6 34.5 72 34.5 124.4v575.4l-736.6-790.1c-2.1-1-5.5-1.2-10.2-.7-4.7.5-7.1 2.2-7.1 5.2v229.9c0 1.2.5 2.4 1.3 3.4l587.6 637.2c25.2 28.6 41.1 48.6 47.9 60 6.8 11.3 17 17 30.6 17 16.8 0 40.3-.5 70.7-1.5 30.4-1 64.4-1.5 102.1-1.5 18.8 0 39.2.5 61.2 1.5 22 1 43.5 1.5 64.4 1.5 2.1 0 3.1-3 3.1-8.9s-1.1-8.8-3.1-8.8z"/>
</svg>
