<svg xmlns="http://www.w3.org/2000/svg" viewBox="0 0 6136.92 1248.24">
  <path d="M1142 1166.9c0 3-2.3 4.7-7 5.2-4.7.5-8 .2-10.1-.8L358.6 344.2c-37.3-40.3-68.9-67.6-94.8-81.8-25.9-14.3-51.8-21.4-77.7-21.4-2.1 0-3.1-2.9-3.1-8.8s1-8.9 3.1-8.9c20.7 0 42 .5 63.7 1.5 21.8 1 42 1.5 60.6 1.5 37.3 0 71-.5 101-1.5 30.1-1 53.4-1.5 70-1.5 13.4 0 23.6 5.6 30.3 17s22.5 31.2 47.4 59.7l570.5 623.6 12.4 243.3zM349.3 957.6V257.3l46.6 2.9v697.3c0 52.1 11.4 93.4 34.2 123.9 22.8 30.4 54.4 45.7 94.8 45.7 2.1 0 3.1 2.9 3.1 8.8s-1 8.8-3.1 8.8c-22.8 0-46.4-.5-70.7-1.5-24.4-1-51-1.5-80-1.5-31.1 0-61.4.5-90.9 1.5-29.5 1-56.7 1.5-81.6 1.5-3.1 0-4.7-2.9-4.7-8.8s1.6-8.9 4.7-8.9c45.6 0 81.6-15.2 108-45.7s39.7-71.8 39.7-123.9zM1142 412.1v754.8l-45.1-44.2V412.1c0-52.1-11.4-93.6-34.2-124.6-22.8-31-54.4-46.4-94.8-46.4-2.1 0-3.1-2.9-3.1-8.8s1-8.9 3.1-8.9c22.8 0 46.3.7 70.7 2.2 24.4 1.5 51 2.2 80.1 2.2s55.4-.7 82.4-2.2c26.9-1.5 51.8-2.2 74.6-2.2 2.1 0 3.1 2.9 3.1 8.8s-1 8.8-3.1 8.8c-41.4 0-74.1 15.5-97.9 46.4-23.9 31-35.8 72.5-35.8 124.6z"/>
  <path d="M1516.6 1164c-65.3 0-121.8-14.3-169.4-42.8-47.7-28.5-84.5-66.6-110.4-114.2s-38.8-99-38.8-154.1c0-51.1 10.4-95.3 31.1-132.7 20.7-37.3 48.2-68.1 82.4-92.1 34.2-24.1 71.5-42 111.9-53.8 40.4-11.8 80.3-17.7 119.7-17.7 66.3 0 123 14.8 170.2 44.2 47.1 29.5 83.1 67.3 108 113.5 24.9 46.2 37.3 95.3 37.3 147.4 0 60-15.8 112.8-47.4 158.5-31.6 45.7-73.3 81.1-125.1 106.1-51.9 25.1-108.3 37.6-169.4 37.6zm46.6-31c41.5 0 72.5-19.2 93.3-57.5 20.7-38.3 31.1-92.4 31.1-162.2s-9.6-131.7-28.8-179.9c-19.2-48.1-43.8-84.5-73.8-109.1-30.1-24.5-61.7-36.8-94.8-36.8-40.4 0-71.2 17.2-92.5 51.6-21.3 34.4-31.9 87.5-31.9 159.2 0 66.8 8.8 125.6 26.4 176.2 17.6 50.6 41.4 89.7 71.5 117.2s63.2 41.3 99.5 41.3z"/>
  <path d="M1818.1 1155.1c-4.1 1-7.2-.8-9.3-5.2-2.1-4.4-1-7.1 3.1-8.1 23.9-13.8 42.5-32.2 56-55.3 13.4-23.1 20.2-54.3 20.2-93.6V276.4c0-33.4-3.4-57.7-10.1-73-6.8-15.2-18.9-22.8-36.5-22.8-13.5 0-32.6 5.4-57.5 16.2-4.2 1-7.5-1.5-10.1-7.4-2.6-5.9-2.8-9.3-.8-10.3l226.9-101.7c3.1-1 5.7-1.5 7.8-1.5 5.2 0 10.6 2.2 16.3 6.6 5.7 4.4 8.5 8.6 8.5 12.5v967.1l-214.5 92.9zm360.6 8.8c-44.5 0-88.1-7.6-130.6-22.8-42.5-15.3-80.8-37.6-115-67.1l99.5-172.5c0 58 10.4 104.2 31.1 138.6 20.7 34.4 45.6 58.7 74.6 73 29 14.2 54.9 21.3 77.7 21.3 45.6 0 80-21.6 103.4-64.8 23.3-43.3 35-103.7 35-181.4 0-88.4-15.5-152.8-46.6-193.1-31.1-40.3-72.5-60.5-124.3-60.5-32.1 0-62.7 6.4-91.7 19.2-29 12.8-55.4 28-79.3 45.7l-14-11.8c21.8-20.6 44.8-41 69.2-61.2 24.3-20.1 52.1-36.8 83.1-50.1 31.1-13.3 66.3-19.9 105.7-19.9 45.6 0 87.8 10.1 126.7 30.2 38.9 20.2 70.5 50.4 94.8 90.7 24.4 40.3 36.5 91.4 36.5 153.3 0 73.7-16.3 135.4-49 185-32.6 49.7-74.4 86.8-125.1 111.3-50.8 24.6-104.7 36.9-161.7 36.9z"/>
  <path d="M2472.5 1144.8c-2.1 0-3.1-2.9-3.1-8.8s1-8.9 3.1-8.9c32.1 0 54.1-7.1 66-21.4 11.9-14.2 17.9-41 17.9-80.3l1.5-749c0-33.4-3.1-57.7-9.3-73s-18.1-22.8-35.7-22.8c-13.5 0-33.2 5.4-59.1 16.2-3.1 1-6.2-1.5-9.3-7.4-3.1-5.9-3.7-9.3-1.6-10.3l228.5-101.7c2.1-.9 4.1-1.5 6.2-1.5 5.2 0 10.9 2.2 17.1 6.6 6.2 4.5 9.3 8.6 9.3 12.5v930.3c0 39.3 5.7 66.1 17.1 80.3 11.4 14.3 33.1 21.4 65.3 21.4 4.1 0 6.2 2.9 6.2 8.8s-2.1 8.8-6.2 8.8c-19.7 0-43.3-.5-70.7-1.5-27.5-1-56.2-1.5-86.3-1.5s-58.5.5-85.5 1.5c-26.9 1-50.8 1.5-71.5 1.5z"/>
  <path d="M3053.8 1162.5c-67.4 0-124.6-13.3-171.8-39.8-47.1-26.5-82.9-61.7-107.2-105.4-24.4-43.7-36.5-90.7-36.5-140.8 0-58 15-110.6 45.1-157.8 30-47.1 71.5-85 124.4-113.5 52.8-28.5 113.5-42.8 181.9-42.8 61.1 0 110.1 13.3 146.9 39.8 36.8 26.5 55.2 69.8 55.2 129.7 0 12.8-1 23.6-3.1 32.5-2.1 8.8-6.8 13.2-14 13.2h-149.2c2.1-56-3.6-101-17.1-134.9-13.5-33.9-39.4-50.9-77.7-50.9-41.5 0-74.4 20.2-98.7 60.5-24.4 40.3-36.5 93.8-36.5 160.7 0 57 9.3 106.1 28 147.4 18.6 41.3 46.1 73.2 82.4 95.8 36.2 22.6 80.8 33.9 133.7 33.9 31 0 57.2-3.7 78.5-11.1 21.2-7.3 44.8-17.4 70.7-30.2 2.1-2 4.9-1 8.6 2.9s4.4 7.4 2.3 10.3c-38.4 36.4-77.5 62.2-117.4 77.4-39.9 15.2-82.6 22.9-128.2 22.9zm-213-383.3l-1.5-28 340.4-5.9v32.4l-338.8 1.5z"/>
  <path d="M3663.3 195.8c0-3 2.3-4.7 7-5.2 4.7-.5 8 .2 10.1.7l766.3 827.1c37.3 40.3 68.9 67.6 94.8 81.8 25.9 14.3 51.8 21.4 77.7 21.4 2.1 0 3.1 2.9 3.1 8.8s-1 8.9-3.1 8.9c-20.7 0-42-.5-63.7-1.5-21.8-1-42-1.5-60.6-1.5-37.3 0-71 .5-101 1.5-30.1 1-53.4 1.5-70 1.5-13.4 0-23.6-5.7-30.3-17-6.7-11.3-22.5-31.2-47.4-59.7l-570.5-623.6-12.4-243.3zm792.7 209.3v700.3l-46.6-2.9V405.1c0-52.1-11.4-93.4-34.2-123.9-22.8-30.4-54.4-45.7-94.8-45.7-2.1 0-3.1-2.9-3.1-8.8s1-8.8 3.1-8.8c22.8 0 46.4.5 70.7 1.5 24.4 1 51 1.5 80 1.5 31.1 0 61.4-.5 90.9-1.5 29.6-1 56.8-1.5 81.6-1.5 3.1 0 4.7 2.9 4.7 8.8s-1.6 8.9-4.7 8.9c-45.6 0-81.6 15.2-108 45.7s-39.7 71.8-39.7 123.9zm-792.7 545.5V195.8l45.1 44.2v710.6c0 52.1 11.4 93.6 34.2 124.6 22.8 31 54.4 46.4 94.8 46.4 2.1 0 3.1 2.9 3.1 8.8s-1 8.9-3.1 8.9c-22.8 0-46.3-.7-70.7-2.2-24.4-1.5-51-2.2-80.1-2.2s-55.4.7-82.4 2.2c-26.9 1.5-51.8 2.2-74.6 2.2-2.1 0-3.1-2.9-3.1-8.8s1-8.8 3.1-8.8c41.4 0 74.1-15.5 97.9-46.4 23.9-31 35.8-72.5 35.8-124.6z"/>
  <path d="M4825.7 1142.5c-67.4 0-124.6-13.3-171.8-39.8-47.1-26.5-82.9-61.7-107.2-105.4-24.4-43.7-36.5-90.7-36.5-140.8 0-58 15-110.6 45.1-157.8 30-47.1 71.5-85 124.4-113.5s113.5-42.8 181.9-42.8c61.1 0 110.1 13.3 146.9 39.8 36.8 26.5 55.2 69.8 55.2 129.7 0 12.8-1 23.6-3.1 32.5-2.1 8.8-6.8 13.2-14 13.2h-149.2c2.1-56-3.6-101-17.1-134.9-13.5-33.9-39.4-50.9-77.7-50.9-41.5 0-74.4 20.2-98.7 60.5-24.4 40.3-36.5 93.8-36.5 160.7 0 57 9.3 106.1 28 147.4 18.6 41.3 46.1 73.2 82.4 95.8 36.2 22.6 80.8 33.9 133.7 33.9 31 0 57.2-3.7 78.5-11.1 21.2-7.3 44.8-17.4 70.7-30.2 2.1-2 4.9-1 8.6 2.9 3.6 4 4.4 7.4 2.3 10.3-38.4 36.4-77.5 62.2-117.4 77.4-39.9 15.2-82.6 22.9-128.2 22.9zm-213-383.3l-1.5-28 340.4-5.9v32.4l-338.8 1.5z"/>
  <path d="M5223.6 636.5c0 20.6 6 39.1 17.9 55.3 11.9 16.2 27.2 31 45.9 44.2 18.6 13.3 38.8 26.3 60.6 39.1 25.9 13.7 51.3 28.2 76.2 43.5 24.8 15.2 45.6 33.7 62.2 55.3 16.5 21.6 24.8 49.6 24.8 84 0 31.5-8.6 62.2-25.7 92.1-17.1 30-42.7 54.3-76.9 73-34.2 18.6-77.2 28-129 28-25.9 0-51.8-2.7-77.7-8.1-25.9-5.4-53.9-16-83.9-31.7-2.1-2-4.2-4.4-6.2-7.4s-3.1-6.4-3.1-10.3l-3.1-146c0-2.9 2.8-4.6 8.5-5.1 5.7-.5 9.1.3 10.1 2.2 11.4 31.5 27.5 60.7 48.2 87.7 20.7 27 44.3 48.7 70.7 64.9 26.4 16.2 53.1 24.3 80.1 24.3 20.7 0 37.8-6.1 51.3-18.4 13.4-12.3 20.2-31.2 20.2-56.8 0-27.5-6.5-50.3-19.4-68.5-13-18.2-29.3-33.9-48.9-47.2-19.7-13.2-39.9-25.3-60.6-36.1-23.9-12.8-47.7-26-71.5-39.8-23.9-13.8-43.5-31.2-59.1-52.4-15.5-21.1-23.3-48.9-23.3-83.3 0-41.3 10.9-74.2 32.6-98.8 21.8-24.5 50-42.3 84.7-53.1 34.7-10.8 70.7-16.2 108-16.2 22.8 0 43.8 1.5 63 4.4s41.2 8.9 66.1 17.7c9.3 2.9 14 8.4 14 16.2 0 19.7-.5 40.1-1.6 61.2-1 21.1-1.5 44.5-1.5 70 0 3-3.1 4.5-9.3 4.5s-9.3-1.5-9.3-4.5c0-18.6-8-38.8-24.1-60.5-16.1-21.6-37-40.5-63-56.7-25.9-16.2-53.9-24.4-83.9-24.4-14.5 0-28.8 3.4-42.7 10.3-14 6.9-21 22.6-21 47.2z"/>
  <path d="M5724.1 1152.5c-24.9 0-50-4-75.4-11.8-25.4-7.8-46.6-21.6-63.7-41.3-17.1-19.6-25.6-47.1-25.6-82.5v-327.3c0-20.7-2.6-36.9-7.8-48.7-5.2-11.8-13.5-20.1-24.9-25-11.4-4.9-26.9-7.4-46.6-7.4-4.1 0-6.2-4.4-6.2-13.3s2.1-13.3 6.2-13.3c52.8-1.9 95.8-13 129-33.1 33.2-20.2 58-49.9 74.6-89.2 2.1-3.9 6.5-5.9 13.2-5.9s10.1 2 10.1 5.9v508.6c0 39.3 10.6 67.3 31.9 84 21.2 16.7 47.4 25.1 78.5 25.1 23.8 0 46.3-4.7 67.6-14 21.3-9.3 39.1-19.4 53.6-30.2 3.1-3 7-2.2 11.7 2.2 4.6 4.4 4.9 8.1.8 11-38.4 36.4-75.4 63.2-111.1 80.4-35.8 17.2-74.4 25.8-115.8 25.8zm178.8-511.6c-42.5-8.8-83.7-15-123.6-18.4-39.9-3.5-82.1-5.2-126.7-5.2v-38.3c42.5 0 84.2-1.5 125.1-4.4 40.9-3 84.7-6.4 131.4-10.3 2 0 4.4 3.7 7 11.1 2.6 7.3 3.9 15.4 3.9 24.3 0 9.8-1.8 19.4-5.4 28.8-3.7 9.3-7.5 13.5-11.7 12.5z"/>
</svg>
