<?xml version="1.0" encoding="UTF-8"?>
<svg id="Layer_2" xmlns="http://www.w3.org/2000/svg" version="1.1" viewBox="0 0 6136.92 1248.24">
  <!-- Generator: Adobe Illustrator 29.0.1, SVG Export Plug-In . SVG Version: 2.1.0 Build 192)  -->
  <path d="M1141.98,1166.9c0,2.95-2.34,4.66-6.99,5.17-4.67.48-8.04.23-10.1-.75L358.61,344.24c-37.31-40.28-68.92-67.56-94.82-81.82-25.92-14.26-51.82-21.38-77.71-21.38-2.08,0-3.11-2.93-3.11-8.83s1.03-8.85,3.11-8.85c20.73,0,41.96.5,63.72,1.48,21.76,1,41.96,1.48,60.62,1.48,37.29,0,70.97-.48,101.03-1.48,30.06-.98,53.37-1.48,69.96-1.48,13.46,0,23.56,5.65,30.3,16.96s22.54,31.21,47.41,59.7l570.46,623.62,12.42,243.26ZM349.27,957.55V257.27l46.62,2.95v697.33c0,52.1,11.39,93.39,34.2,123.85,22.79,30.47,54.4,45.7,94.82,45.7,2.06,0,3.09,2.95,3.09,8.85s-1.03,8.83-3.09,8.83c-22.81,0-46.38-.48-70.74-1.48-24.36-.98-51.03-1.48-80.04-1.48-31.09,0-61.39.5-90.93,1.48-29.53,1-56.74,1.48-81.61,1.48-3.11,0-4.67-2.93-4.67-8.83s1.56-8.85,4.67-8.85c45.59,0,81.61-15.23,108.03-45.7s39.63-71.76,39.63-123.85ZM1141.98,412.07v754.83l-45.07-44.22V412.07c0-52.08-11.41-93.62-34.2-124.58-22.81-30.96-54.4-46.44-94.8-46.44-2.08,0-3.11-2.93-3.11-8.83s1.03-8.85,3.11-8.85c22.79,0,46.34.75,70.71,2.22,24.36,1.48,51.05,2.2,80.06,2.2s55.43-.73,82.38-2.2c26.95-1.48,51.82-2.22,74.62-2.22,2.06,0,3.09,2.95,3.09,8.85s-1.03,8.83-3.09,8.83c-41.45,0-74.1,15.48-97.93,46.44-23.84,30.96-35.76,72.5-35.76,124.58Z"/>
  <path d="M1516.57,1163.95c-65.29,0-121.77-14.26-169.44-42.75-47.67-28.49-84.46-66.58-110.36-114.25s-38.85-99.02-38.85-154.07c0-51.1,10.36-95.32,31.09-132.69,20.73-37.34,48.18-68.06,82.38-92.14,34.18-24.07,71.49-42,111.91-53.8,40.4-11.8,80.3-17.7,119.69-17.7,66.3,0,123.05,14.75,170.19,44.24,47.15,29.49,83.15,67.33,108.02,113.53,24.87,46.2,37.31,95.34,37.31,147.42,0,59.95-15.82,112.78-47.41,158.48-31.6,45.72-73.31,81.09-125.13,106.15-51.82,25.06-108.28,37.59-169.41,37.59ZM1563.2,1132.98c41.45,0,72.54-19.16,93.27-57.48,20.73-38.32,31.09-92.39,31.09-162.17s-9.59-131.69-28.77-179.86c-19.17-48.17-43.78-84.54-73.83-109.1-30.06-24.56-61.65-36.86-94.8-36.86-40.42,0-71.25,17.21-92.5,51.6-21.25,34.41-31.86,87.49-31.86,159.22,0,66.83,8.81,125.56,26.42,176.18,17.62,50.62,41.43,89.69,71.49,117.2s63.21,41.27,99.49,41.27Z"/>
  <path d="M1818.11,1155.11c-4.16.98-7.27-.75-9.33-5.15-2.08-4.44-1.05-7.13,3.11-8.12,23.84-13.76,42.48-32.17,55.96-55.28,13.46-23.09,20.2-54.3,20.2-93.62V276.43c0-33.42-3.37-57.73-10.1-72.96-6.75-15.23-18.91-22.86-36.52-22.86-13.47,0-32.64,5.4-57.51,16.21-4.16,1-7.51-1.46-10.1-7.36-2.59-5.9-2.85-9.33-.77-10.33l226.92-101.72c3.11-.98,5.7-1.48,7.78-1.48,5.17,0,10.63,2.22,16.32,6.63,5.7,4.43,8.55,8.6,8.55,12.53v967.13l-214.5,92.89ZM2178.72,1163.95c-44.56,0-88.1-7.63-130.58-22.84-42.48-15.23-80.82-37.59-115.01-67.08l99.47-172.5c0,58,10.36,104.19,31.09,138.59,20.73,34.41,45.59,58.73,74.6,72.98,29.01,14.26,54.93,21.36,77.73,21.36,45.58,0,80.04-21.61,103.35-64.86,23.31-43.25,34.99-103.7,34.99-181.34,0-88.45-15.55-152.82-46.64-193.14-31.09-40.29-72.54-60.45-124.34-60.45-32.12,0-62.7,6.4-91.71,19.18-29.01,12.78-55.43,28.01-79.27,45.7l-14-11.8c21.76-20.62,44.81-41.01,69.17-61.16,24.36-20.16,52.08-36.86,83.17-50.14,31.07-13.26,66.3-19.91,105.69-19.91,45.59,0,87.81,10.08,126.68,30.23,38.87,20.16,70.46,50.37,94.82,90.67,24.34,40.29,36.52,91.4,36.52,153.32,0,73.73-16.32,135.41-48.97,185.03-32.64,49.63-74.36,86.74-125.13,111.3-50.78,24.55-104.66,36.85-161.65,36.85Z"/>
  <path d="M2472.47,1144.78c-2.08,0-3.11-2.93-3.11-8.83s1.03-8.85,3.11-8.85c32.12,0,54.14-7.13,66.06-21.38,11.92-14.26,17.88-41.02,17.88-80.34l1.56-748.94c0-33.42-3.11-57.73-9.33-72.96s-18.12-22.86-35.74-22.86c-13.49,0-33.17,5.4-59.07,16.21-3.11,1-6.22-1.46-9.33-7.36-3.11-5.9-3.64-9.33-1.56-10.33l228.49-101.72c2.06-.98,4.14-1.48,6.22-1.48,5.17,0,10.87,2.22,17.09,6.63,6.22,4.43,9.33,8.6,9.33,12.53v930.28c0,39.32,5.7,66.09,17.09,80.34,11.39,14.26,33.15,21.38,65.29,21.38,4.14,0,6.22,2.95,6.22,8.85s-2.08,8.83-6.22,8.83c-19.7,0-43.27-.48-70.72-1.48-27.47-.98-56.22-1.48-86.28-1.48s-58.54.5-85.49,1.48c-26.95,1-50.77,1.48-71.49,1.48Z"/>
  <path d="M3053.79,1162.47c-67.37,0-124.62-13.28-171.77-39.8-47.15-26.54-82.89-61.68-107.25-105.42-24.36-43.73-36.52-90.67-36.52-140.79,0-57.98,15.01-110.57,45.07-157.75,30.06-47.17,71.51-85,124.36-113.51,52.85-28.51,113.47-42.77,181.87-42.77,61.13,0,110.08,13.28,146.86,39.81,36.79,26.54,55.19,69.78,55.19,129.74,0,12.78-1.05,23.59-3.11,32.44-2.08,8.85-6.75,13.26-13.98,13.26h-149.22c2.06-56.03-3.64-100.98-17.09-134.89-13.47-33.91-39.37-50.87-77.71-50.87-41.45,0-74.36,20.16-98.7,60.45-24.36,40.29-36.52,93.87-36.52,160.7,0,57,9.31,106.15,27.98,147.42,18.65,41.29,46.1,73.23,82.38,95.84,36.26,22.61,80.82,33.9,133.67,33.9,31.07,0,57.23-3.68,78.48-11.06,21.25-7.36,44.83-17.44,70.72-30.22,2.06-1.96,4.91-.98,8.55,2.95s4.4,7.36,2.34,10.31c-38.34,36.37-77.47,62.18-117.37,77.41-39.9,15.21-82.64,22.84-128.22,22.84ZM2840.85,779.16l-1.56-28.01,340.39-5.9v32.44l-338.83,1.48Z"/>
  <path d="M3663.26,195.77c0-2.95,2.34-4.66,6.99-5.17,4.67-.48,8.04-.23,10.1.75l766.29,827.08c37.31,40.28,68.92,67.56,94.82,81.82,25.92,14.26,51.82,21.38,77.71,21.38,2.08,0,3.11,2.93,3.11,8.83s-1.03,8.85-3.11,8.85c-20.73,0-41.96-.5-63.72-1.48-21.76-1-41.96-1.48-60.62-1.48-37.29,0-70.97.48-101.03,1.48-30.06.98-53.37,1.48-69.96,1.48-13.46,0-23.56-5.65-30.3-16.96-6.75-11.3-22.54-31.21-47.41-59.7l-570.46-623.62-12.42-243.26ZM4455.97,405.11v700.28l-46.62-2.95V405.11c0-52.1-11.39-93.39-34.2-123.85-22.79-30.47-54.4-45.7-94.82-45.7-2.06,0-3.09-2.95-3.09-8.85s1.03-8.83,3.09-8.83c22.81,0,46.38.48,70.74,1.48,24.36.98,51.03,1.48,80.04,1.48,31.09,0,61.39-.5,90.93-1.48,29.53-1,56.74-1.48,81.61-1.48,3.11,0,4.67,2.93,4.67,8.83s-1.56,8.85-4.67,8.85c-45.59,0-81.61,15.23-108.03,45.7s-39.63,71.76-39.63,123.85ZM3663.26,950.59V195.77l45.07,44.22v710.61c0,52.08,11.41,93.62,34.2,124.58,22.81,30.96,54.4,46.44,94.8,46.44,2.08,0,3.11,2.93,3.11,8.83s-1.03,8.85-3.11,8.85c-22.79,0-46.34-.75-70.71-2.22-24.36-1.48-51.05-2.2-80.06-2.2s-55.43.73-82.38,2.2c-26.95,1.48-51.82,2.22-74.62,2.22-2.06,0-3.09-2.95-3.09-8.85s1.03-8.83,3.09-8.83c41.45,0,74.1-15.48,97.93-46.44,23.84-30.96,35.76-72.5,35.76-124.58Z"/>
  <path d="M4825.71,1142.47c-67.37,0-124.62-13.28-171.77-39.8-47.15-26.54-82.89-61.68-107.25-105.42-24.36-43.73-36.52-90.67-36.52-140.79,0-57.98,15.01-110.57,45.07-157.75,30.06-47.17,71.51-85,124.36-113.51s113.47-42.77,181.87-42.77c61.13,0,110.08,13.28,146.86,39.81,36.79,26.54,55.19,69.78,55.19,129.74,0,12.78-1.05,23.59-3.11,32.44-2.08,8.85-6.75,13.26-13.98,13.26h-149.22c2.06-56.03-3.64-100.98-17.09-134.89-13.47-33.91-39.37-50.87-77.71-50.87-41.45,0-74.36,20.16-98.7,60.45-24.36,40.29-36.52,93.87-36.52,160.7,0,57,9.31,106.15,27.98,147.42,18.65,41.29,46.1,73.23,82.38,95.84,36.26,22.61,80.82,33.9,133.67,33.9,31.07,0,57.23-3.68,78.48-11.06,21.25-7.36,44.83-17.44,70.72-30.22,2.06-1.96,4.91-.98,8.55,2.95,3.64,3.93,4.4,7.36,2.34,10.31-38.34,36.37-77.47,62.18-117.37,77.41-39.9,15.21-82.64,22.84-128.22,22.84ZM4612.77,759.16l-1.56-28.01,340.39-5.9v32.44l-338.83,1.48Z"/>
  <path d="M5223.62,636.48c0,20.65,5.96,39.09,17.88,55.3,11.92,16.21,27.19,30.96,45.86,44.22,18.65,13.26,38.85,26.29,60.62,39.07,25.9,13.76,51.29,28.26,76.16,43.49,24.87,15.23,45.59,33.66,62.18,55.28,16.57,21.63,24.87,49.64,24.87,84.04,0,31.46-8.56,62.18-25.65,92.14-17.09,29.99-42.75,54.32-76.93,72.98-34.2,18.65-77.21,27.99-129.02,27.99-25.9,0-51.82-2.7-77.71-8.11-25.9-5.4-53.88-15.96-83.94-31.69-2.08-1.96-4.16-4.43-6.22-7.38s-3.09-6.38-3.09-10.31l-3.11-145.96c0-2.95,2.85-4.66,8.55-5.15,5.7-.5,9.05.25,10.1,2.2,11.39,31.46,27.45,60.7,48.18,87.72,20.73,27.03,44.3,48.67,70.72,64.88,26.42,16.23,53.11,24.33,80.06,24.33,20.73,0,37.82-6.13,51.29-18.43,13.46-12.28,20.2-31.21,20.2-56.77,0-27.51-6.48-50.36-19.43-68.54-12.95-18.18-29.27-33.91-48.95-47.17-19.7-13.26-39.9-25.31-60.62-36.14-23.84-12.76-47.67-26.04-71.51-39.8-23.84-13.76-43.51-31.21-59.07-52.35-15.55-21.12-23.31-48.88-23.31-83.29,0-41.27,10.87-74.21,32.64-98.77,21.76-24.56,50-42.27,84.7-53.07,34.71-10.81,70.72-16.23,108.03-16.23,22.79,0,43.78,1.48,62.95,4.43s41.19,8.85,66.08,17.69c9.31,2.95,13.98,8.37,13.98,16.23,0,19.66-.52,40.06-1.56,61.18-1.05,21.13-1.56,44.47-1.56,70.03,0,2.95-3.11,4.43-9.33,4.43s-9.31-1.48-9.31-4.43c0-18.66-8.04-38.82-24.1-60.45-16.06-21.61-37.05-40.54-62.95-56.75-25.92-16.21-53.9-24.33-83.94-24.33-14.5,0-28.77,3.45-42.75,10.33-14,6.88-20.99,22.61-20.99,47.17Z"/>
  <path d="M5724.12,1152.47c-24.89,0-50.02-3.95-75.39-11.78-25.39-7.86-46.64-21.63-63.73-41.29-17.09-19.66-25.64-47.17-25.64-82.56v-327.28c0-20.64-2.6-36.85-7.78-48.65-5.19-11.8-13.49-20.16-24.89-25.06-11.39-4.91-26.95-7.38-46.62-7.38-4.14,0-6.2-4.41-6.2-13.26s2.06-13.28,6.2-13.28c52.85-1.96,95.85-13.01,129.02-33.17,33.15-20.16,58.02-49.88,74.6-89.19,2.06-3.93,6.47-5.9,13.21-5.9s10.1,1.97,10.1,5.9v508.62c0,39.32,10.61,67.33,31.86,84.04,21.25,16.71,47.41,25.06,78.5,25.06,23.84,0,46.36-4.66,67.61-14.01,21.25-9.33,39.13-19.41,53.63-30.22,3.11-2.95,6.99-2.2,11.66,2.22,4.65,4.43,4.91,8.11.79,11.04-38.34,36.37-75.39,63.15-111.15,80.36-35.76,17.19-74.36,25.79-115.79,25.79ZM5902.86,640.9c-42.48-8.85-83.67-14.98-123.57-18.43-39.9-3.43-82.12-5.15-126.68-5.15v-38.34c42.48,0,84.2-1.48,125.13-4.43,40.93-2.95,84.72-6.38,131.35-10.31,2.06,0,4.4,3.7,6.99,11.06,2.59,7.38,3.9,15.48,3.9,24.32,0,9.85-1.82,19.43-5.45,28.76-3.64,9.35-7.51,13.53-11.66,12.53Z"/>
</svg>